<mxfile host="app.diagrams.net" modified="2023-05-05T17:13:58.979Z" agent="Mozilla/5.0 (X11; Ubuntu; Linux x86_64; rv:109.0) Gecko/20100101 Firefox/112.0" etag="jNQqm05HdtoC6WkGR1Kg" version="21.2.9" type="github">
  <diagram name="Page-1" id="_97hO4fMkuDL7uCoVin8">
    <mxGraphModel dx="1228" dy="221" grid="1" gridSize="10" guides="1" tooltips="1" connect="1" arrows="1" fold="1" page="1" pageScale="1" pageWidth="850" pageHeight="1100" math="0" shadow="0">
      <root>
        <mxCell id="0" />
        <mxCell id="1" parent="0" />
        <mxCell id="GAOu6_gz8aAjEJgxLE-n-1" value="" style="whiteSpace=wrap;html=1;aspect=fixed;" parent="1" vertex="1">
          <mxGeometry x="-800" y="40" width="80" height="80" as="geometry" />
        </mxCell>
        <mxCell id="GAOu6_gz8aAjEJgxLE-n-2" value="&lt;div&gt;Hostname&lt;/div&gt;&lt;div&gt;IP(s)&lt;/div&gt;&lt;div&gt;Ports&lt;/div&gt;&lt;div&gt;tools&lt;br&gt;&lt;/div&gt;" style="text;html=1;strokeColor=none;fillColor=none;align=center;verticalAlign=middle;whiteSpace=wrap;rounded=0;" parent="1" vertex="1">
          <mxGeometry x="-790" y="60" width="60" height="40" as="geometry" />
        </mxCell>
        <mxCell id="gXxrvokNHO_WqYMba-JA-1" value="" style="whiteSpace=wrap;html=1;aspect=fixed;" vertex="1" parent="1">
          <mxGeometry x="350" y="550" width="80" height="80" as="geometry" />
        </mxCell>
        <mxCell id="gXxrvokNHO_WqYMba-JA-2" value="&lt;div&gt;Inernet_Host&lt;/div&gt;&lt;div&gt;10.50.37.59&lt;/div&gt;&lt;div&gt;eth0 10.10.0.40&lt;/div&gt;&lt;div&gt;21,22,23,80&lt;/div&gt;&lt;div&gt;wireshark,nmap,telnet,wget,curl,tcpdump(sudo)&lt;/div&gt;&lt;div&gt;student:password&lt;br&gt;&lt;/div&gt;" style="text;html=1;strokeColor=none;fillColor=none;align=center;verticalAlign=middle;whiteSpace=wrap;rounded=0;" vertex="1" parent="1">
          <mxGeometry x="360" y="575" width="60" height="30" as="geometry" />
        </mxCell>
      </root>
    </mxGraphModel>
  </diagram>
</mxfile>
